<svg width="30" height="32" viewBox="0 0 30 32" fill="none" xmlns="http://www.w3.org/2000/svg">
<path d="M1 12.5815C1 11.6147 1.46592 10.7072 2.25152 10.1437L15 1L27.7485 10.1437C28.5341 10.7072 29 11.6147 29 12.5815V28.5C29 29.8807 27.8807 31 26.5 31H20.2C19.6477 31 19.2 30.5523 19.2 30V21.2727C19.2 20.9966 18.9761 20.7727 18.7 20.7727H11.3C11.0239 20.7727 10.8 20.9966 10.8 21.2727V30C10.8 30.5523 10.3523 31 9.8 31H3.5C2.11929 31 1 29.8807 1 28.5V12.5815Z" stroke="black" stroke-width="2" stroke-linecap="round" stroke-linejoin="round"/>
</svg>
