<svg width="128" height="128" viewBox="0 0 128 128" fill="none" xmlns="http://www.w3.org/2000/svg">
<path d="M82.375 106C80.0436 75.8514 58.9236 72.2085 48.775 67.9375C49.3236 74.8465 65.9582 80.6396 70.2898 84.7704C76.6469 90.8328 81.2331 95.8391 82.375 106Z" fill="#1E19FF"/>
<path d="M52.7125 54.025C52.7125 34.075 33.1562 26.4625 22 22C43.315 32.29 42.3438 42.8687 43.1312 58.225C44.8375 78.8312 63.2125 82.5062 63.2125 82.5062C50.875 72.5312 52.7125 63.2125 52.7125 54.025Z" fill="#FF2CA5"/>
<path d="M62.1239 84.2567C48.0491 78.3159 44.767 74.1573 43.525 60.85C43.525 60.85 48.5519 74.6326 62.1239 78.3159C75.696 81.9992 82.2075 98.0393 82.375 106C78.2095 91.148 75.6573 89.9689 62.1239 84.2567Z" fill="#6000FF"/>
<path d="M58.4127 62.7124C62.7709 39.208 83.6844 51.0936 94.8144 28.3C89.5866 54.8305 65.1945 55.0495 58.4127 62.7124Z" fill="#1E19FF"/>
<path d="M58.4156 62.7193C69.1306 44.5994 89.6791 52.8668 105.942 34.2029C97.3011 51.9087 87.6772 66.7312 58.4156 62.7193Z" fill="#FF2CA5"/>
<path d="M58.4064 62.7154C69.2766 74.3202 90.1304 65.5289 96.8058 58.0697C87.5516 63.8076 73.8789 55.7374 58.4064 62.7154Z" fill="#6000FF"/>
<ellipse cx="48.1188" cy="37.8812" rx="2.49375" ry="2.49375" fill="#14141B"/>
<path d="M51.4253 33.3451C47.9627 30.8207 43.78 33.9764 37.4875 29.4554C46.1943 30.0331 49.8099 26.8381 54.657 31.6257C59.5498 37.2528 55.1288 44.5092 59.9453 50.8416C54.2063 48.6284 55.7238 36.4788 51.4253 33.3451Z" fill="#1E19FF"/>
</svg>
