<?xml version="1.0" encoding="iso-8859-1"?>
<!-- Uploaded to: SVG Repo, www.svgrepo.com, Generator: SVG Repo Mixer Tools -->
<svg fill="#000000" height="800px" width="800px" version="1.1" id="Capa_1" xmlns="http://www.w3.org/2000/svg" xmlns:xlink="http://www.w3.org/1999/xlink" 
	 viewBox="0 0 29.125 29.125" xml:space="preserve">
<g>
	<path d="M21.705,6.148c1.119,0,2.021-0.898,2.021-2.016V2.02c0-1.12-0.902-2.02-2.021-2.02c-1.114,0-2.018,0.9-2.018,2.02v2.113
		C19.688,5.25,20.591,6.148,21.705,6.148z"/>
	<path d="M28.885,3.498h-4.069v1.023c0,1.699-1.377,3.078-3.076,3.078c-1.7,0-3.074-1.379-3.074-3.078V3.498h-8.203v1.023
		c0,1.699-1.377,3.078-3.075,3.078c-1.699,0-3.073-1.379-3.073-3.078V3.498L0.211,3.445v25.678l2.05,0.002h24.604l2.049-0.008
		L28.885,3.498z M26.864,27.08H2.261V10.674h24.604L26.864,27.08L26.864,27.08z"/>
	<path d="M7.355,6.148c1.116,0,2.017-0.898,2.017-2.016V2.02C9.371,0.9,8.471,0,7.355,0C6.24,0,5.336,0.9,5.336,2.02v2.113
		C5.336,5.25,6.24,6.148,7.355,6.148z"/>
	<path d="M10.063,22.643c0.766-0.656,1.327-1.723,1.327-3.264c0-1.422-0.529-2.414-1.363-3.033c-0.767-0.572-1.767-0.861-3.31-0.861
		c-0.906,0-1.782,0.072-2.45,0.18v7.898c0.444,0.059,1.122,0.119,2.069,0.119C7.912,23.682,9.213,23.346,10.063,22.643z
		 M6.083,16.955c0.157-0.037,0.43-0.072,0.825-0.072c1.576,0,2.559,0.885,2.559,2.557c0,1.922-1.089,2.832-2.75,2.818
		c-0.217,0-0.477,0-0.634-0.033C6.083,22.225,6.083,16.955,6.083,16.955z"/>
	<path d="M14.269,21.529h2.305l0.623,2.07h1.972l-2.51-8.055h-2.39l-2.45,8.056h1.878L14.269,21.529z M15.008,18.459
		c0.133-0.465,0.252-1.074,0.373-1.553h0.022c0.12,0.479,0.262,1.076,0.408,1.553l0.5,1.711H14.53L15.008,18.459z"/>
	<path d="M20.963,23.6h1.814v-3.361l2.652-4.693h-2.043l-0.812,1.936c-0.239,0.572-0.43,1.039-0.609,1.541h-0.024
		c-0.19-0.525-0.368-0.955-0.619-1.541l-0.814-1.936h-2.089l2.544,4.754V23.6z"/>
	<g>
	</g>
	<g>
	</g>
	<g>
	</g>
	<g>
	</g>
	<g>
	</g>
	<g>
	</g>
	<g>
	</g>
	<g>
	</g>
	<g>
	</g>
	<g>
	</g>
	<g>
	</g>
	<g>
	</g>
	<g>
	</g>
	<g>
	</g>
	<g>
	</g>
</g>
</svg>